<svg xmlns="http://www.w3.org/2000/svg" width="105" height="105" viewBox="0 0 105 105">
  <defs>
    <style>
      .cls-1 {
        fill: #fff;
        stroke: #3d4647;
        stroke-width: 3.333px;
      }

      .cls-2 {
        fill: #3d4647;
        fill-rule: evenodd;
      }
    </style>
  </defs>
  <circle class="cls-1" cx="52" cy="52" r="50"/>
  <path class="cls-2" d="M25.5,54.023a25.507,25.507,0,0,1,.869-10.185A25.866,25.866,0,0,1,50.861,25.359V18.45a0.5,0.5,0,0,1,.8-0.356l14.3,10.446a0.435,0.435,0,0,1,0,.7L51.674,39.685a0.5,0.5,0,0,1-.8-0.356v-6.9A18.718,18.718,0,0,0,33.943,43.838a18.268,18.268,0,0,0-1.448,8.143,18.469,18.469,0,0,0,4.081,10.6A3.524,3.524,0,0,1,35.9,67.65a3.6,3.6,0,0,1-4.936-.686A25.272,25.272,0,0,1,25.5,54.023Zm41.281-13.27a18.294,18.294,0,0,1,2.634,18.739A18.7,18.7,0,0,1,52.488,70.9V64a0.5,0.5,0,0,0-.8-0.356L37.39,74.092a0.435,0.435,0,0,0,0,.7L51.674,85.237a0.5,0.5,0,0,0,.8-0.356V77.972A25.714,25.714,0,0,0,77.83,49.308a25.14,25.14,0,0,0-5.446-12.941,3.6,3.6,0,0,0-4.936-.685A3.534,3.534,0,0,0,66.786,40.754Z"/>
</svg>
