<svg xmlns="http://www.w3.org/2000/svg" width="105" height="105" viewBox="0 0 105 105">
  <defs>
    <style>
      .cls-1 {
        fill: #fff;
        stroke: #3d4647;
        stroke-width: 3.333px;
      }

      .cls-2 {
        fill: #3d4647;
        fill-rule: evenodd;
      }
    </style>
  </defs>
  <circle class="cls-1" cx="52" cy="52" r="50"/>
  <path id="Shape_1_copy_3" data-name="Shape 1 copy 3" class="cls-2" d="M77.354,71.13V32.841a2.368,2.368,0,0,0-3.636-2.063c-1.448.834-30.394,17.666-32.864,19.106a2.386,2.386,0,0,0,0,4.148c1.778,1.056,30.834,17.974,32.938,19.149A2.354,2.354,0,0,0,77.354,71.13Z"/>
  <path id="Shape_1_copy" data-name="Shape 1 copy" class="cls-2" d="M56.02,71.13V32.841a2.368,2.368,0,0,0-3.636-2.063c-1.448.834-30.394,17.666-32.864,19.106a2.386,2.386,0,0,0,0,4.148C21.3,55.087,50.354,72.005,52.458,73.181A2.354,2.354,0,0,0,56.02,71.13Z"/>
</svg>
