<svg xmlns="http://www.w3.org/2000/svg" width="105" height="105" viewBox="0 0 105 105">
  <defs>
    <style>
      .cls-1 {
        fill: #2a2f35;
        stroke: #40444a;
        stroke-width: 3.333px;
      }

      .cls-2 {
        fill: #fff;
        fill-rule: evenodd;
        opacity: 0.8;
      }
    </style>
  </defs>
  <circle class="cls-1" cx="52" cy="52" r="50"/>
  <path id="Shape_1_copy_3" data-name="Shape 1 copy 3" class="cls-2" d="M26.99,71.635V33.43a2.368,2.368,0,0,1,3.636-2.059C32.075,32.2,61.02,49,63.49,50.435a2.378,2.378,0,0,1,0,4.139c-1.778,1.054-30.834,17.935-32.938,19.108A2.354,2.354,0,0,1,26.99,71.635Z"/>
  <path id="Shape_1_copy" data-name="Shape 1 copy" class="cls-2" d="M48.324,71.635V33.43a2.367,2.367,0,0,1,3.636-2.059C53.408,32.2,82.353,49,84.824,50.435a2.378,2.378,0,0,1,0,4.139C83.045,55.627,53.99,72.509,51.885,73.681A2.354,2.354,0,0,1,48.324,71.635Z"/>
</svg>
