<svg xmlns="http://www.w3.org/2000/svg" width="105" height="105" viewBox="0 0 105 105">
  <defs>
    <style>
      .cls-1 {
        fill: #fff;
        stroke: #3d4647;
        stroke-width: 3.333px;
      }

      .cls-2 {
        fill: #3d4647;
        fill-rule: evenodd;
      }
    </style>
  </defs>
  <circle class="cls-1" cx="52" cy="52" r="50"/>
  <path id="Shape_1_copy_3" data-name="Shape 1 copy 3" class="cls-2" d="M25.99,71.635V33.43a2.368,2.368,0,0,1,3.636-2.059C31.075,32.2,60.02,49,62.49,50.435a2.378,2.378,0,0,1,0,4.139c-1.778,1.054-30.834,17.935-32.938,19.108A2.354,2.354,0,0,1,25.99,71.635Z"/>
  <path id="Shape_1_copy" data-name="Shape 1 copy" class="cls-2" d="M47.324,71.635V33.43a2.367,2.367,0,0,1,3.636-2.059C52.408,32.2,81.353,49,83.824,50.435a2.378,2.378,0,0,1,0,4.139C82.045,55.627,52.99,72.509,50.885,73.681A2.354,2.354,0,0,1,47.324,71.635Z"/>
</svg>
