<svg xmlns="http://www.w3.org/2000/svg" width="105" height="105" viewBox="0 0 105 105">
  <defs>
    <style>
      .cls-1 {
        fill: #fff;
        stroke: #3d4647;
        stroke-width: 3.333px;
      }

      .cls-2, .cls-3 {
        fill: #3d4647;
      }

      .cls-2 {
        fill-rule: evenodd;
      }
    </style>
  </defs>
  <circle class="cls-1" cx="52" cy="52" r="50"/>
  <path id="Shape_1_copy_3" data-name="Shape 1 copy 3" class="cls-2" d="M18.99,71.635V33.43a2.368,2.368,0,0,1,3.636-2.059C24.075,32.2,53.02,49,55.49,50.435a2.378,2.378,0,0,1,0,4.139c-1.778,1.054-30.834,17.935-32.938,19.108A2.354,2.354,0,0,1,18.99,71.635Z"/>
  <path id="Shape_1_copy" data-name="Shape 1 copy" class="cls-2" d="M40.324,71.635V33.43a2.367,2.367,0,0,1,3.636-2.059C45.408,32.2,74.353,49,76.824,50.435a2.378,2.378,0,0,1,0,4.139C75.045,55.627,45.99,72.509,43.885,73.681A2.354,2.354,0,0,1,40.324,71.635Z"/>
  <rect id="Rounded_Rectangle_1" data-name="Rounded Rectangle 1" class="cls-3" x="77.344" y="30.656" width="6.688" height="42.688" rx="3.333" ry="3.333"/>
</svg>
