<svg xmlns="http://www.w3.org/2000/svg" xmlns:xlink="http://www.w3.org/1999/xlink" width="368" height="368" viewBox="0 0 368 368">
  <defs>
    <style>
      .cls-1 {
        fill-opacity: 0.2;
      }

      .cls-1, .cls-3, .cls-4, .cls-5, .cls-6, .cls-7, .cls-8 {
        fill-rule: evenodd;
      }

      .cls-2 {
        fill: none;
        stroke: #fff;
        stroke-width: 10px;
        stroke-dasharray: 25 20 25 20 25 20;
      }

      .cls-3, .cls-8 {
        fill: #fff;
      }

      .cls-4, .cls-6 {
        stroke: #f0eded;
      }

      .cls-4, .cls-5, .cls-6, .cls-7, .cls-8 {
        stroke-width: 1px;
      }

      .cls-4 {
        fill: url(#linear-gradient);
      }

      .cls-5 {
        fill: #fdf9f9;
        fill-opacity: 0.7;
        stroke: #cecfcf;
      }

      .cls-6 {
        fill: url(#radial-gradient);
      }

      .cls-7 {
        fill: #bf3030;
      }

      .cls-7, .cls-8 {
        stroke: #c0c2c2;
      }
    </style>
    <linearGradient id="linear-gradient" x1="184" y1="367.188" x2="184" y2="0.813" gradientUnits="userSpaceOnUse">
      <stop offset="0" stop-color="#e9e5e5"/>
      <stop offset="0.127" stop-color="#f1efef"/>
      <stop offset="0.259" stop-color="#fff"/>
      <stop offset="0.464" stop-color="#fff"/>
      <stop offset="0.645" stop-color="#bcbcbc"/>
      <stop offset="0.806" stop-color="#e7e7e7"/>
      <stop offset="1" stop-color="#727272"/>
    </linearGradient>
    <radialGradient id="radial-gradient" cx="183" cy="207.469" r="137.531" gradientUnits="userSpaceOnUse">
      <stop offset="0" stop-color="#e6e4e4"/>
      <stop offset="0.194" stop-color="#e7e7e7"/>
      <stop offset="0.355" stop-color="#fdfdfd"/>
      <stop offset="0.536" stop-color="#cbc7c7"/>
      <stop offset="0.741" stop-color="#fff"/>
      <stop offset="0.873" stop-color="#f1efef"/>
      <stop offset="1" stop-color="#e9e5e5"/>
    </radialGradient>
  </defs>
  <path class="cls-1" d="M338.529,184A154.529,154.529,0,1,1,184,29.47,154.529,154.529,0,0,1,338.529,184ZM184,38.817A145.183,145.183,0,1,0,329.184,184,145.184,145.184,0,0,0,184,38.817Z"/>
  <circle class="cls-2" cx="184" cy="184" r="150.969"/>
  <path id="Shape_7_copy" data-name="Shape 7 copy" class="cls-3" d="M284.444,184A100.444,100.444,0,1,1,184,83.556,100.444,100.444,0,0,1,284.444,184ZM184,116.054A67.946,67.946,0,1,0,251.946,184,67.946,67.946,0,0,0,184,116.054Z"/>
  <path id="Ellipse_1_copy" data-name="Ellipse 1 copy" class="cls-4" d="M184,0.812A183.187,183.187,0,1,1,.812,184,183.187,183.187,0,0,1,184,.812Zm-0.328,83.823A99.365,99.365,0,1,1,84.307,184,99.365,99.365,0,0,1,183.672,84.635ZM320.849,184A136.849,136.849,0,1,1,184,47.15,136.849,136.849,0,0,1,320.849,184ZM184,64.8A119.2,119.2,0,1,0,303.192,184,119.2,119.2,0,0,0,184,64.8ZM337.271,184A153.271,153.271,0,1,1,184,30.728,153.271,153.271,0,0,1,337.271,184ZM183.994,37.15A146.85,146.85,0,1,0,330.845,184,146.851,146.851,0,0,0,183.994,37.15Z"/>
  <path class="cls-5" d="M184.016,13.594c94.069,0,170.328,76.287,170.328,170.39S278.085,354.375,184.016,354.375,13.688,278.088,13.688,183.984,89.946,13.594,184.016,13.594Zm-0.344,71.041A99.365,99.365,0,1,1,84.307,184,99.365,99.365,0,0,1,183.672,84.635ZM320.849,184A136.849,136.849,0,1,1,184,47.15,136.849,136.849,0,0,1,320.849,184ZM184,64.8A119.2,119.2,0,1,0,303.192,184,119.2,119.2,0,0,0,184,64.8ZM320.849,184A136.849,136.849,0,1,1,184,47.15,136.849,136.849,0,0,1,320.849,184ZM184,64.8A119.2,119.2,0,1,0,303.192,184,119.2,119.2,0,0,0,184,64.8ZM320.849,184A136.849,136.849,0,1,1,184,47.15,136.849,136.849,0,0,1,320.849,184ZM184,64.8A119.2,119.2,0,1,0,303.192,184,119.2,119.2,0,0,0,184,64.8ZM337.271,184A153.271,153.271,0,1,1,184,30.728,153.271,153.271,0,0,1,337.271,184ZM183.994,37.15A146.85,146.85,0,1,0,330.845,184,146.851,146.851,0,0,0,183.994,37.15Z"/>
  <path id="Ellipse_1_copy_2" data-name="Ellipse 1 copy 2" class="cls-6" d="M184.016,69.943a114.077,114.077,0,0,1,98.442,171.593C289.875,245.574,322,265,322,265s-42.667,80-138,80S44,265,44,265s19.722-11.64,41.175-24.149A114.079,114.079,0,0,1,184.016,69.943Zm-0.344,14.682A99.375,99.375,0,1,1,84.313,184,99.367,99.367,0,0,1,183.672,84.625Z"/>
  <path class="cls-7" d="M279.651,243.272l38.773,22.839-5.075,8.617-38.773-22.839Z"/>
  <path id="Rectangle_1_copy" data-name="Rectangle 1 copy" class="cls-8" d="M86.9,242.991L48.013,265.513l5.09,8.5,38.884-22.522Z"/>
</svg>
