<svg id="cpu_gauge" xmlns="http://www.w3.org/2000/svg" xmlns:xlink="http://www.w3.org/1999/xlink" width="405" height="403" viewBox="0 0 405 403">
  <defs>
    <style>
      .cls-1 {
        stroke: #f0eded;
        fill: url(#linear-gradient);
      }

      .cls-1, .cls-2 {
        stroke-width: 1px;
      }

      .cls-2 {
        fill: #fdf9f9;
        fill-opacity: 0.5;
        stroke: #cecfcf;
      }

      .cls-3 {
        fill: #1e1e1e;
      }

      .cls-3, .cls-4, .cls-5 {
        fill-rule: evenodd;
      }

      .cls-4 {
        fill: #ffc107;
      }

      .cls-5 {
        fill: #fff;
        opacity: 0.2;
      }

      .cls-6 {
        fill: #d8d5d5;
      }
    </style>
    <linearGradient id="linear-gradient" x1="202.672" y1="402.906" x2="202.672" y2="0.594" gradientUnits="userSpaceOnUse">
      <stop offset="0" stop-color="#e9e5e5"/>
      <stop offset="0.127" stop-color="#f1efef"/>
      <stop offset="0.259" stop-color="#fff"/>
      <stop offset="0.464" stop-color="#fff"/>
      <stop offset="0.645" stop-color="#bcbcbc"/>
      <stop offset="0.806" stop-color="#e7e7e7"/>
      <stop offset="1" stop-color="#727272"/>
    </linearGradient>
  </defs>
  <g id="bg">
    <ellipse id="Ellipse_1_copy" data-name="Ellipse 1 copy" class="cls-1" cx="202.672" cy="201.75" rx="202.297" ry="201.156"/>
    <ellipse class="cls-2" cx="202.687" cy="201.734" rx="188.094" ry="187.109"/>
  </g>
  <g id="gradient">
    <g>
      <path id="Ellipse_1_copy_6" data-name="Ellipse 1 copy 6" class="cls-3" d="M320.092,263.839C330.563,245.916,346.408,209.857,337,167,320.869,93.513,257.4,57,192,57,78.44,57-18.337,165.972,35.791,288.109a185.515,185.515,0,0,1-21.2-86.375C14.594,98.4,98.806,14.625,202.687,14.625S390.781,98.4,390.781,201.734a185.528,185.528,0,0,1-20.654,85.331"/>
      <path id="Ellipse_1_copy_7" data-name="Ellipse 1 copy 7" class="cls-4" d="M319.126,264.468C329.874,246.117,345.174,210.791,336,169,319.869,95.513,257.4,59,192,59,78.44,59-17.337,167.972,36.791,290.109a187.072,187.072,0,1,1,352.99-86.375c0,30.738-8.451,59.745-21.654,85.331"/>
    </g>
  </g>
  <path id="glow" class="cls-5" d="M202.688,0.592A202.407,202.407,0,0,1,382.166,108.868c-109.407-5.339-306.923,86.81-353.958,194.744A199.385,199.385,0,0,1,.4,201.757C0.4,90.657,90.967.592,202.688,0.592Z"/>
  <ellipse id="pointer" class="cls-6" cx="202.672" cy="201.75" rx="9.797" ry="9.75"/>
</svg>
